<svg fill="none" height="200" viewBox="0 0 200 200" width="200" xmlns="http://www.w3.org/2000/svg"><circle cx="100" cy="100" fill="#ff3131" fill-opacity=".9" r="90"/><path d="m60 70c0-5.5228 4.4772-10 10-10h60c5.523 0 10 4.4772 10 10v60c0 5.523-4.477 10-10 10h-60c-5.5228 0-10-4.477-10-10z" fill="#fff"/><path d="m80 85c0-2.7614 2.2386-5 5-5h30c2.761 0 5 2.2386 5 5v30c0 2.761-2.239 5-5 5h-30c-2.7614 0-5-2.239-5-5z" fill="#ff3131"/><path d="m50 100c0-27.6142 22.3858-50 50-50 27.614 0 50 22.3858 50 50 0 27.614-22.386 50-50 50-27.6142 0-50-22.386-50-50z" stroke="#fff" stroke-width="6"/><path d="m65 100c0-19.33 15.67-35 35-35 19.33 0 35 15.67 35 35 0 19.33-15.67 35-35 35-19.33 0-35-15.67-35-35z" stroke="#ff3131" stroke-width="4"/></svg>