<svg width="32" height="32" viewBox="0 0 200 200" fill="none" xmlns="http://www.w3.org/2000/svg">
  <style>
    @media (prefers-color-scheme: dark) {
      .bg-circle { fill: #60a5fa; }
      .white-square { fill: #1f2937; }
      .red-square { fill: #60a5fa; }
      .white-ring { stroke: #1f2937; }
      .red-ring { stroke: #60a5fa; }
    }
    @media (prefers-color-scheme: light) {
      .bg-circle { fill: #FF3131; }
      .white-square { fill: white; }
      .red-square { fill: #FF3131; }
      .white-ring { stroke: white; }
      .red-ring { stroke: #FF3131; }
    }
  </style>
  <circle cx="100" cy="100" r="90" class="bg-circle" fill-opacity="0.9"/>
  <path d="M60 70C60 64.4772 64.4772 60 70 60H130C135.523 60 140 64.4772 140 70V130C140 135.523 135.523 140 130 140H70C64.4772 140 60 135.523 60 130V70Z" class="white-square"/>
  <path d="M80 85C80 82.2386 82.2386 80 85 80H115C117.761 80 120 82.2386 120 85V115C120 117.761 117.761 120 115 120H85C82.2386 120 80 117.761 80 115V85Z" class="red-square"/>
  <path d="M50 100C50 72.3858 72.3858 50 100 50V50C127.614 50 150 72.3858 150 100V100C150 127.614 127.614 150 100 150V150C72.3858 150 50 127.614 50 100V100Z" class="white-ring" stroke-width="6"/>
  <path d="M65 100C65 80.67 80.67 65 100 65V65C119.33 65 135 80.67 135 100V100C135 119.33 119.33 135 100 135V135C80.67 135 65 119.33 65 100V100Z" class="red-ring" stroke-width="4"/>
</svg>
