<svg xmlns="http://www.w3.org/2000/svg" width="131.631" height="38" viewBox="0 0 131.631 38">
  <g id="Group_10179" data-name="Group 10179" transform="translate(-77 -148.393)">
    <path id="Path_72" data-name="Path 72" d="M54,272.926V261.487c0-8.29,3.993-13.806,12.2-13.806H80.844a3.775,3.775,0,0,1,2.745.811,3.385,3.385,0,0,1,.778,2.474c-.016,2.252-1.041,3.238-3.428,3.288H66.088a5.342,5.342,0,0,0-3.953,1.385c-1,.991-1.5,3.954-1.5,5.881v11.616c0,3.65,2.009,5.659,5.661,5.659l14.875.034c2.295,0,3.228.968,3.228,3.34,0,2.317-.96,3.26-3.314,3.26H66.2c-8.212,0-12.2-4.089-12.2-12.5" transform="translate(23 -99.287)" fill="#f69232"/>
    <path id="Path_73" data-name="Path 73" d="M116.283,285.433q-3.283,0-3.281-3.369V250.983q0-3.3,3.324-3.3t3.323,3.392v5.543h7.806q9.978,0,9.976,10.2v15.3q0,3.327-3.324,3.325t-3.328-3.369V266.678q0-3.414-3.369-3.412h-7.761v18.8q0,3.37-3.367,3.369" transform="translate(-1 -99.287)" fill="#f69232"/>
    <path id="Path_74" data-name="Path 74" d="M210.482,288.277q0,3.284-3.323,3.282H196.03q-9.976,0-9.977-10.2V272.8q0-10.066,9.977-10.063h10.95q3.479-.024,3.478,3.3-.02,3.235-3.39,3.3H195.941q-3.234-.022-3.238,3.481v8.687q0,3.395,3.391,3.393l11.13.024q3.258,0,3.258,3.345" transform="translate(-30.715 -105.413)" fill="#f69232"/>
    <path id="Path_75" data-name="Path 75" d="M252.488,277.858c0,2.275-1.127,3.413-3.37,3.413h-4.481q-3.281,0-3.282-3.413V269.1q0-3.3,3.282-3.3h4.481c2.242,0,3.37,1.07,3.37,3.214Zm4.424-15.935a.983.983,0,0,0,.029-.151l.365-6.62a1.178,1.178,0,0,0-2.04-.864l-4.539,4.9c-.516-.047-1.048-.079-1.609-.079h-4.413c-.549,0-1.066.031-1.57.078l-4.536-4.894a1.178,1.178,0,0,0-2.04.864l.367,6.62c0,.044.016.086.023.13-1.488,1.665-2.242,4.067-2.242,7.223v8.823q0,9.977,9.909,9.974h4.545q9.972,0,9.975-10.2V269.1c0-3.133-.747-5.519-2.225-7.179" transform="translate(-50.506 -101.821)" fill="#f69232"/>
    <path id="Path_76" data-name="Path 76" d="M93.816,277.2a3.352,3.352,0,1,1-3.353-3.349,3.353,3.353,0,0,1,3.353,3.349" transform="translate(9.531 -109.931)" fill="#f69232"/>
    <path id="Path_77" data-name="Path 77" d="M79.806,271.538a1.922,1.922,0,1,1-1.922-1.923,1.92,1.92,0,0,1,1.922,1.923" transform="translate(14.067 -108.209)" fill="#f69232"/>
    <path id="Path_78" data-name="Path 78" d="M79.806,284.819a1.922,1.922,0,1,1-1.922-1.923,1.922,1.922,0,0,1,1.922,1.923" transform="translate(14.067 -113.612)" fill="#f69232"/>
    <path id="Path_79" data-name="Path 79" d="M165.353,263.406a1.922,1.922,0,1,1,1.924,1.922,1.924,1.924,0,0,1-1.924-1.922m3.2,17.881c0-.007-.008-.013-.011-.02,2.745-7.441,4.869-17.058,2.205-20.934a4.256,4.256,0,0,0-6.934,0c-2.671,3.889-.537,13.539,2.218,20.981l-2.7,6.949a1.348,1.348,0,0,0,1.255,1.835H170a1.348,1.348,0,0,0,1.255-1.835Z" transform="translate(-21.169 -103.707)" fill="#f69232"/>
  </g>
</svg>
